{
    "asset": {
        "version": "2.0",
        "generator": "Open Asset Import Library (assimp v5.2.cf7d3637)"
    },
    "extensionsUsed": [
        "KHR_materials_volume",
        "FB_ngon_encoding"
    ],
    "accessors": [
        {
            "bufferView": 0,
            "byteOffset": 0,
            "componentType": 5126,
            "count": 29901,
            "type": "VEC3",
            "max": [
                0.631833016872406,
                0.5907279849052429,
                0.995851993560791
            ],
            "min": [
                -0.6403440237045288,
                -0.5602909922599793,
                -1.0047800540924073
            ]
        },
        {
            "bufferView": 1,
            "byteOffset": 0,
            "componentType": 5126,
            "count": 29901,
            "type": "VEC3",
            "max": [
                0.9999997615814209,
                1.0,
                0.9999998211860657
            ],
            "min": [
                -0.9999998211860657,
                -0.9999999403953552,
                -1.0
            ]
        },
        {
            "bufferView": 2,
            "byteOffset": 0,
            "componentType": 5126,
            "count": 29901,
            "type": "VEC2",
            "max": [
                0.9994919896125794,
                0.9999442100524902
            ],
            "min": [
                0.000008187260391423479,
                0.000011980533599853516
            ]
        },
        {
            "bufferView": 3,
            "byteOffset": 0,
            "componentType": 5125,
            "count": 29901,
            "type": "SCALAR",
            "max": [
                29900
            ],
            "min": [
                0
            ]
        }
    ],
    "buffers": [
        {
            "byteLength": 1076436,
            "uri": "result.bin"
        }
    ],
    "bufferViews": [
        {
            "buffer": 0,
            "byteOffset": 0,
            "byteLength": 358812,
            "target": 34962
        },
        {
            "buffer": 0,
            "byteOffset": 358812,
            "byteLength": 358812,
            "target": 34962
        },
        {
            "buffer": 0,
            "byteOffset": 717624,
            "byteLength": 239208,
            "target": 34962
        },
        {
            "buffer": 0,
            "byteOffset": 956832,
            "byteLength": 119604,
            "target": 34963
        }
    ],
    "images": [
        {
            "name": "temp.fbm/texture_0.png",
            "uri": "data:image/png;base64,"
        }
    ],
    "materials": [
        {
            "name": "Material.001",
            "pbrMetallicRoughness": {
                "baseColorTexture": {
                    "index": 0
                },
                "baseColorFactor": [
                    0.800000011920929,
                    0.800000011920929,
                    0.800000011920929,
                    1.0
                ],
                "metallicFactor": 0.0,
                "roughnessFactor": 0.5
            }
        }
    ],
    "meshes": [
        {
            "name": "temp",
            "primitives": [
                {
                    "mode": 4,
                    "material": 0,
                    "indices": 3,
                    "attributes": {
                        "POSITION": 0,
                        "NORMAL": 1,
                        "TEXCOORD_0": 2
                    }
                }
            ]
        }
    ],
    "nodes": [
        {
            "name": "RootNode",
            "children": [
                1
            ]
        },
        {
            "name": "temp",
            "matrix": [
                100.0,
                0.0,
                0.0,
                0.0,
                0.0,
                100.0,
                0.0,
                0.0,
                0.0,
                0.0,
                100.0,
                0.0,
                0.0,
                0.0,
                0.0,
                1.0
            ],
            "mesh": 0,
            "extras": {
                "UserProperties": "",
                "IsNull": false,
                "DefaultAttributeIndex": 0,
                "InheritType": 1
            }
        }
    ],
    "samplers": [
        {}
    ],
    "scenes": [
        {
            "nodes": [
                0
            ]
        }
    ],
    "textures": [
        {
            "source": 0,
            "sampler": 0
        }
    ],
    "scene": 0
}